<svg width="100" height="40" xmlns="http://www.w3.org/2000/svg">

 <g>
  <title>Layer 1</title>
  <g>
   <path clip-rule="evenodd" d="m384,279.46729l0,12.646c-1.345,0.254 -2.051,0.354 -3.122,0.354c-3.208,-0.003 -4.878,-1.435 -4.878,-4.184c0,-2.649 1.771,-4.368 4.516,-4.368c0.426,0 0.75,0.033 1.143,0.134l0,-4.582l2.341,0zm-2.341,6.672c-0.308,-0.1 -0.561,-0.134 -0.886,-0.134c-1.328,0 -2.096,0.809 -2.096,2.228c0,1.381 0.734,2.143 2.079,2.143c0.291,0 0.527,-0.016 0.903,-0.067l0,-4.17l0,0z" fill-rule="evenodd" fill="#004d40"/>
   <path clip-rule="evenodd" d="m388,283.51329l0,6.618c0,2.076 -0.155,3.224 -0.612,4.084c-0.426,0.827 -0.987,1.349 -2.146,1.925l-2.437,-1.149c1.159,-0.539 1.721,-1.015 2.079,-1.742c0.375,-0.743 0.494,-1.754 0.494,-4.017l0,-5.721l2.622,0l0,0.002z" fill-rule="evenodd" fill="#004d40"/>
   <rect clip-rule="evenodd" fill-rule="evenodd" fill="#004d40" y="279.46729" x="385.377" height="2.713" width="2.623"/>
   <path clip-rule="evenodd" d="m389.734,284.34329c1.136,-0.552 2.223,-0.795 3.408,-0.795c1.321,0 2.189,0.363 2.573,1.073c0.215,0.397 0.285,0.914 0.285,2.021l0,5.407c-1.152,0.171 -2.606,0.294 -3.673,0.294c-2.156,0 -3.123,-0.778 -3.123,-2.505c0,-1.868 1.285,-2.731 4.441,-3.006l0,-0.585c0,-0.483 -0.235,-0.658 -0.884,-0.658c-0.95,0 -2.02,0.278 -3.024,0.812l-0.003,-2.058zm4.027,4.231c-1.702,0.171 -2.255,0.449 -2.255,1.141c0,0.518 0.318,0.761 1.02,0.761c0.384,0 0.735,-0.034 1.235,-0.12l0,-1.782l0,0z" fill-rule="evenodd" fill="#004d40"/>
   <path clip-rule="evenodd" d="m397.418,284.16029c1.52,-0.421 2.772,-0.613 4.041,-0.613c1.318,0 2.273,0.317 2.839,0.93c0.532,0.578 0.702,1.212 0.702,2.563l0,5.303l-2.574,0l0,-5.195c0,-1.038 -0.335,-1.424 -1.252,-1.424c-0.351,0 -0.669,0.035 -1.186,0.195l0,6.425l-2.57,0l0,-8.184z" fill-rule="evenodd" fill="#004d40"/>
   <path clip-rule="evenodd" d="m406.177,293.47329c0.919,0.486 1.839,0.71 2.812,0.71c1.721,0 2.454,-0.473 2.454,-2.176l0,-0.052c-0.51,0.258 -1.025,0.366 -1.704,0.366c-2.302,0 -3.739,-1.547 -3.739,-3.997c0,-3.043 2.141,-4.762 5.974,-4.762c1.126,0 2.167,0.121 3.427,0.383l-0.899,1.93c-0.699,-0.138 -0.057,-0.021 -0.584,-0.072l0,0.279l0.034,1.13l0.017,1.461c0.017,0.366 0.017,0.73 0.034,1.096l0,0.73c0,2.295 -0.19,3.131 -0.751,4.02c-0.818,1.302 -2.234,1.947 -4.246,1.947c-1.024,0 -1.91,-0.155 -2.829,-0.521l0,-2.472l0,0zm5.215,-7.755l-0.085,0l-0.19,0c-0.51,-0.017 -1.108,0.121 -1.518,0.383c-0.628,0.365 -0.953,1.027 -0.953,1.964c0,1.337 0.649,2.102 1.808,2.102c0.358,0 0.649,-0.069 0.987,-0.172l0,-0.193l0,-0.73c0,-0.314 -0.017,-0.662 -0.017,-1.027l-0.017,-1.234l-0.017,-0.886l0,-0.207l0.002,0z" fill-rule="evenodd" fill="#004d40"/>
   <path clip-rule="evenodd" d="m419.566,283.51329c2.753,0 4.434,1.66 4.434,4.348c0,2.756 -1.752,4.483 -4.544,4.483c-2.756,0 -4.456,-1.659 -4.456,-4.33c0.005,-2.773 1.757,-4.501 4.566,-4.501zm-0.057,6.706c1.057,0 1.681,-0.838 1.681,-2.294c0,-1.439 -0.607,-2.294 -1.663,-2.294c-1.093,0 -1.718,0.838 -1.718,2.294c0.001,1.456 0.629,2.294 1.7,2.294l0,0z" fill-rule="evenodd" fill="#004d40"/>
  </g>
  <g stroke="null">
   <path stroke="null" clip-rule="evenodd" d="m23.41909,6.93618l0,19.12834c-2.14726,0.3842 -3.27437,0.53546 -4.98419,0.53546c-5.12149,-0.00454 -7.7876,-2.17058 -7.7876,-6.32872c0,-4.00688 2.82735,-6.60704 7.20967,-6.60704c0.6801,0 1.19735,0.04992 1.82477,0.20269l0,-6.93073l3.73734,0zm-3.73734,10.09207c-0.49171,-0.15126 -0.89562,-0.20269 -1.41448,-0.20269c-2.12012,0 -3.34621,1.22369 -3.34621,3.37007c0,2.0889 1.17181,3.2415 3.31907,3.2415c0.46457,0 0.84134,-0.0242 1.44162,-0.10134l0,-6.30754l0,0z" fill-rule="evenodd" fill="#004d40"/>
   <path stroke="null" clip-rule="evenodd" d="m29.80498,13.05617l0,10.01039c0,3.14016 -0.24745,4.87662 -0.97704,6.17746c-0.6801,1.25092 -1.57572,2.0405 -3.42603,2.91176l-3.8906,-1.73798c1.85031,-0.81529 2.74753,-1.53529 3.31907,-2.63495c0.59868,-1.12386 0.78866,-2.6531 0.78866,-6.07612l0,-8.65359l4.18595,0l0,0.00303z" fill-rule="evenodd" fill="#004d40"/>
   <rect stroke="null" clip-rule="evenodd" fill-rule="evenodd" fill="#004d40" y="6.93618" x="25.61743" height="4.10368" width="4.18755"/>
   <path stroke="null" clip-rule="evenodd" d="m32.57326,14.31162c1.81359,-0.83496 3.54896,-1.20252 5.44078,-1.20252c2.10894,0 3.49468,0.54907 4.10772,1.62302c0.34324,0.6005 0.45499,1.38252 0.45499,3.05697l0,8.17863c-1.83914,0.25865 -4.16041,0.4447 -5.86385,0.4447c-3.442,0 -4.98579,-1.1768 -4.98579,-3.78906c0,-2.82554 2.05147,-4.13091 7.08994,-4.54688l0,-0.88487c0,-0.73059 -0.37517,-0.99529 -1.41128,-0.99529c-1.51665,0 -3.22488,0.4205 -4.82773,1.22823l-0.00479,-3.11293zm6.429,6.39981c-2.7172,0.25865 -3.60005,0.67916 -3.60005,1.72588c0,0.78353 0.50768,1.15109 1.6284,1.15109c0.61305,0 1.17341,-0.05143 1.97164,-0.18151l0,-2.69545l0,0z" fill-rule="evenodd" fill="#004d40"/>
   <path stroke="null" clip-rule="evenodd" d="m44.84056,14.03482c2.42664,-0.6368 4.42542,-0.92722 6.45135,-0.92722c2.10415,0 3.62878,0.47949 4.53239,1.40672c0.84932,0.87428 1.12072,1.83327 1.12072,3.87679l0,8.02132l-4.10932,0l0,-7.85796c0,-1.57008 -0.53482,-2.15394 -1.99878,-2.15394c-0.56036,0 -1.06804,0.05294 -1.89342,0.29496l0,9.71846l-4.10294,0l0,-12.37912z" fill-rule="evenodd" fill="#004d40"/>
   <path stroke="null" clip-rule="evenodd" d="m58.82407,28.12166c1.46716,0.73512 2.93591,1.07395 4.48928,1.07395c2.74753,0 3.91774,-0.71546 3.91774,-3.29142l0,-0.07866c-0.8142,0.39025 -1.63638,0.55361 -2.72039,0.55361c-3.67508,0 -5.96921,-2.33999 -5.96921,-6.04586c0,-4.60284 3.41805,-7.203 9.53733,-7.203c1.79763,0 3.45956,0.18302 5.47111,0.57933l-1.43523,2.91932c-1.11593,-0.20874 -0.091,-0.03176 -0.93234,-0.10891l0,0.42202l0.05428,1.70924l0.02714,2.20991c0.02714,0.55361 0.02714,1.1042 0.05428,1.65781l0,1.1042c0,3.47142 -0.30333,4.73595 -1.19895,6.08065c-1.30591,1.96941 -3.56652,2.94503 -6.77862,2.94503c-1.63479,0 -3.04926,-0.23445 -4.51642,-0.78806l0,-3.73915l0,0zm8.32561,-11.73022l-0.1357,0l-0.30333,0c-0.8142,-0.02571 -1.76889,0.18302 -2.42345,0.57933c-1.00259,0.5521 -1.52144,1.55344 -1.52144,2.97075c0,2.02235 1.03611,3.17949 2.88642,3.17949c0.57154,0 1.03611,-0.10437 1.57572,-0.26017l0,-0.29193l0,-1.1042c0,-0.47496 -0.02714,-1.00134 -0.02714,-1.55344l-0.02714,-1.86655l-0.02714,-1.34016l0,-0.31311l0.00319,0z" fill-rule="evenodd" fill="#004d40"/>
   <path stroke="null" clip-rule="evenodd" d="m80.19924,13.05617c4.39509,0 7.07876,2.51092 7.07876,6.57679c0,4.16873 -2.79702,6.78099 -7.25437,6.78099c-4.39988,0 -7.11388,-2.5094 -7.11388,-6.54956c0.00798,-4.19444 2.805,-6.80821 7.2895,-6.80821zm-0.091,10.1435c1.68747,0 2.68367,-1.26756 2.68367,-3.46991c0,-2.17663 -0.96906,-3.46991 -2.65493,-3.46991c-1.74494,0 -2.74274,1.26756 -2.74274,3.46991c0.0016,2.20235 1.00418,3.46991 2.714,3.46991l0,0z" fill-rule="evenodd" fill="#004d40"/>
  </g>
 </g>
</svg>